<?xml version="1.0" encoding="UTF-8"?>
<svg version="1.1" xmlns="http://www.w3.org/2000/svg" width="1240" height="1241">
<path d="M0 0 C1.47412354 0.02682861 1.47412354 0.02682861 2.97802734 0.05419922 C85.90312901 1.82792895 167.7602772 20.23156121 310 89 C311.01030273 89.61230469 312.02060547 90.22460938 313.06152344 90.85546875 C325.69055517 98.52860422 337.94823446 106.53025927 349.79492188 115.36425781 C352.09539964 117.07076811 354.41263195 118.75224234 356.734375 120.4296875 C367.4981759 128.23126425 377.84609514 136.42244269 388 145 C388.61182129 145.51272461 389.22364258 146.02544922 389.85400391 146.55371094 C404.24027341 158.6135398 417.74332983 171.5708181 430.99169922 184.86132812 C433.023262 186.89832421 435.06021836 188.92981951 437.09765625 190.9609375 C438.41959207 192.28353317 439.74121817 193.60643849 441.0625 194.9296875 C441.65740234 195.52256561 442.25230469 196.11544373 442.86523438 196.72628784 C447.10504803 200.98947843 451.08172656 205.44101413 455 210 C455.95014333 211.09407796 456.90059627 212.18788723 457.8515625 213.28125 C475.04422615 233.18806051 490.69912988 253.88128272 505.3125 275.75 C505.776633 276.44302216 506.24076599 277.13604431 506.71896362 277.85006714 C535.27423143 320.5612728 557.8830325 366.58404688 575 415 C575.37721191 416.05380859 575.75442383 417.10761719 576.14306641 418.19335938 C591.15830521 460.3948368 600.48871775 504.41167263 605.74285889 548.84313965 C605.98784758 550.89806735 606.24316052 552.95146956 606.50048828 555.00488281 C611.85041364 599.29806008 611.47333848 646.74629725 606 691 C605.91514343 691.70660767 605.83028687 692.41321533 605.74285889 693.14123535 C596.28889411 771.82403575 572.11942202 847.03821136 521 941 C520.4834082 941.84594727 519.96681641 942.69189453 519.43457031 943.56347656 C504.69081516 967.5682417 488.40244163 990.56734763 470.43261719 1012.26318359 C468.37117868 1014.76234405 466.34583293 1017.29045371 464.3125 1019.8125 C460.47430878 1024.5028401 456.44035719 1028.98728126 452.3359375 1033.4453125 C450.34799121 1035.61942099 448.41466662 1037.82422776 446.5 1040.0625 C442.9984194 1044.10087952 439.20186854 1047.81437293 435.3984375 1051.56640625 C433.36692778 1053.6276938 431.48268941 1055.72186556 429.625 1057.9375 C425.74034767 1062.48493661 421.29141177 1066.39816969 416.859375 1070.39453125 C414.58916584 1072.4631508 412.39818654 1074.55747016 410.25 1076.75 C406.67334309 1080.37787395 402.8661061 1083.68529963 399 1087 C397.9566862 1087.90715539 396.91374621 1088.81474081 395.87109375 1089.72265625 C388.31516879 1096.27922838 380.603363 1102.58395087 372.68505859 1108.69726562 C371.07325659 1109.94336465 369.46810175 1111.19804745 367.86328125 1112.453125 C353.40235259 1123.70252998 338.53953185 1134.29261808 323 1144 C322.03433105 1144.6079541 321.06866211 1145.2159082 320.07373047 1145.84228516 C254.09946992 1187.23491206 181.42942696 1216.04160409 -151.5625 1225.25 C-244.34380159 1203.93088363 -333.28271126 1160.58040668 -406 1099 C-406.81259277 1098.31260742 -406.81259277 1098.31260742 -407.64160156 1097.61132812 C-415.20914237 1091.1987233 -422.66486877 1084.67790348 -430 1078 C-431.22396484 1076.91525391 -431.22396484 1076.91525391 -432.47265625 1075.80859375 C-439.82421022 1069.21863962 -446.82485175 1062.28348706 -453.8125 1055.3125 C-454.3123642 1054.815224 -454.81222839 1054.317948 -455.32723999 1053.80560303 C-460.56686924 1048.58735914 -465.71851668 1043.3335881 -470.53100586 1037.71411133 C-472.58583113 1035.31641676 -474.73246239 1033.00677892 -476.875 1030.6875 C-481.7957178 1025.28508543 -486.42792553 1019.69831141 -491 1014 C-491.91225289 1012.87979484 -492.82503803 1011.76002295 -493.73828125 1010.640625 C-520.06008698 978.24727968 -542.63151145 942.94735922 -562 906 C-562.51240234 905.02579102 -563.02480469 904.05158203 -563.55273438 903.04785156 C-602.12153776 829.20733193 -623.74483935 747.07833941 -603.2421875 434.96484375 C-588.26008637 388.12791093 -568.44582237 343.11421658 -543 301 C-542.46407227 300.10474609 -541.92814453 299.20949219 -541.37597656 298.28710938 C-525.93808161 272.54145072 -508.39962136 247.92054908 -489 225 C-488.55237305 224.46890625 -488.10474609 223.9378125 -487.64355469 223.390625 C-481.11433944 215.65487698 -474.42383473 208.09994735 -467.53735352 200.6809082 C-466.36581163 199.39997031 -465.20713983 198.1072488 -464.05444336 196.80932617 C-458.67452378 190.75684185 -453.09982572 184.94376909 -447.36108398 179.23071289 C-445.93160283 177.80662508 -444.50759489 176.37721956 -443.08398438 174.94726562 C-438.4262698 170.2960336 -433.72543939 165.7663923 -428.72729492 161.48217773 C-426.32620824 159.42182477 -424.01132303 157.27173543 -421.6875 155.125 C-417.25503526 151.08720678 -412.72257823 147.22692566 -408.0546875 143.46484375 C-405.8168842 141.65914825 -403.59518101 139.84020688 -401.3828125 138.00390625 C-392.31331098 130.50401639 -382.98872557 123.47032411 -373.37695312 116.68115234 C-370.92724362 114.94854145 -368.48696589 113.20315571 -366.046875 111.45703125 C-355.98857244 104.29594124 -345.76910645 97.56001615 -335.14404297 91.27050781 C-333.07042251 90.04173067 -331.00529105 88.79972939 -328.94140625 87.5546875 C-297.65210433 68.78337341 -265.02708219 53.07816082 -231 40 C-229.23172852 39.3196167 -229.23172852 39.3196167 -227.42773438 38.62548828 C-155.3804552 11.23485364 -76.9587697 -1.40470553 0 0 Z " fill="#75AADB" transform="translate(631,0)"/>
<path d="M0 0 C0.66435059 0.37205566 1.32870117 0.74411133 2.01318359 1.12744141 C11.58385518 6.57599005 19.73416331 12.79430663 27.5390625 20.55371094 C28.93318197 21.93385193 30.35660604 23.28420291 31.78125 24.6328125 C50.40414677 42.52649946 59.96594111 66.13647636 65 91 C65.37318359 92.794375 65.37318359 92.794375 65.75390625 94.625 C72.42613799 134.19180082 63.15100276 176.46714306 40.1875 209.3125 C31.95072801 220.59774534 22.21321051 230.66479444 11 239 C10.02933594 239.72445313 9.05867188 240.44890625 8.05859375 241.1953125 C-7.84000985 252.61683749 -33.65433463 270 -54 270 C-46.03861267 282.04607822 -38.02758021 294.04343144 -29.75 305.875 C-24.71934817 313.06758485 -19.75876588 320.29482159 -14.91333008 327.61328125 C-9.97187745 335.06815006 -4.95664496 342.4723321 0.0625 349.875 C0.51368195 350.54052887 0.96486389 351.20605774 1.42971802 351.89175415 C4.17692013 355.94372311 6.92520405 359.99495716 9.67401123 364.0458374 C10.94965318 365.92580188 12.22511126 367.80589094 13.50048828 369.68603516 C17.82901274 376.06705703 22.15854855 382.44739166 26.48893738 388.82714844 C30.4300173 394.63337602 34.37028269 400.44015617 38.31048584 406.24697876 C40.29029111 409.16467475 42.27014814 412.08233562 44.25 415 C45.04166692 416.1666665 45.83333358 417.33333316 46.625 418.5 C47.016875 419.0775 47.40875 419.655 47.8125 420.25 C51.37499996 425.49999994 51.37499996 425.49999994 52.5622406 427.24961853 C53.35477094 428.41755744 54.14730227 429.58549567 54.93983459 430.75343323 C56.90579524 433.6506291 58.87173918 436.5478363 60.83764648 439.44506836 C64.55765014 444.92733972 68.27783518 450.40948777 71.99856567 455.89126587 C73.76180097 458.48907341 75.52494701 461.08694151 77.28808594 463.68481445 C78.13097738 464.92670681 78.97391286 466.16856928 79.81689453 467.41040039 C80.98350892 469.12899405 82.14997343 470.84768935 83.31640625 472.56640625 C83.98099854 473.54552979 84.64559082 474.52465332 85.33032227 475.53344727 C86.56059399 477.35088187 87.78260846 479.17391268 89 481 C91.94897073 481.47938964 91.94897073 481.47938964 95.46923828 481.43237305 C96.13277313 481.4425647 96.79630798 481.45275635 97.47994995 481.46325684 C99.67682218 481.4934915 101.87325919 481.50266818 104.0703125 481.51171875 C105.59204571 481.52855778 107.11376494 481.54670697 108.63546753 481.56611633 C112.64344923 481.6137072 116.6513743 481.64345742 120.6595459 481.66955566 C125.46711614 481.70454664 130.27446874 481.76158495 135.0818634 481.81494904 C142.38788182 481.89356953 149.6936133 481.94409361 157 482 C157 499.49 157 516.98 157 535 C58.73426785 541.99500808 58.73426785 541.99500808 42.96101379 529.14736938 C34.50637906 520.22406202 30.38409711 508.59511905 26.41650391 497.16162109 C23.01275558 487.82469334 17.17308659 480.12525926 11.38803101 472.13394165 C8.24472731 467.74880259 5.25371896 463.26260469 2.25 458.78125 C1.65225266 457.89504471 1.05450531 457.00883942 0.43864441 456.09577942 C-6.90506949 445.20547783 -14.10298935 434.21910054 -21.3125 423.23974609 C-30.27705136 409.59247245 -39.34649279 396.02119248 -48.5 382.5 C-59.47465628 366.28696371 -70.3160602 349.99143244 -81.0546875 333.62109375 C-92.61135765 316.01748892 -104.31750567 298.5237415 -116 281 C-146.03 280.67 -176.06 280.34 -207 280 C-207 346.66 -207 413.32 -207 482 C-177.63 482 -148.26 482 -118 482 C-118 499.49 -118 516.98 -118 535 C-191.59 535 -265.18 535 -341 535 C-341 517.51 -341 500.02 -341 482 C-315.92 482 -290.84 482 -265 482 C-265 333.83 -265 185.66 -265 33 C-270.61 32.67 -276.22 32.34 -282 32 C-286.80826978 31.42672616 -291.58518357 30.81630361 -296.375 30.125 C-307.81455501 28.52920686 -319.25811953 27.13701482 -330.74755859 25.95166016 C-332.33431396 25.7841626 -332.33431396 25.7841626 -333.953125 25.61328125 C-335.34772949 25.47079956 -335.34772949 25.47079956 -336.77050781 25.32543945 C-339 25 -339 25 -341 24 C-341 7.83 -341 -8.34 -341 -25 C-330.92692308 -23.88076923 -330.92692308 -23.88076923 -326.3828125 -22.9140625 C-302.19315642 -17.91446534 -278.91655529 -15.7296062 -254.25 -15.6875 C-253.22172089 -15.68382416 -252.19344177 -15.68014832 -251.13400269 -15.67636108 C-229.81174152 -15.63659622 -208.90896699 -17.71659104 -187.75415039 -20.20849609 C-168.88160178 -22.42839059 -150.04915268 -24.47222838 -131.0625 -25.375 C-130.28737061 -25.41238281 -129.51224121 -25.44976562 -128.71362305 -25.48828125 C-84.03697002 -27.56380702 -39.55017102 -22.27067158 0 0 Z " fill="#FEFEFE" transform="translate(743,336)"/>
<path d="M0 0 C1.41051132 -0.01164688 1.41051132 -0.01164688 2.84951782 -0.02352905 C36.4464999 -0.24366183 70.15082587 6.40213379 95.4375 30.02734375 C115.12824558 50.01744188 121.32253904 75.55951766 121.17407227 102.97998047 C120.42942003 128.33827232 110.00580648 150.96024694 91.75 168.375 C54.06770371 200.35997298 1.87380944 203.98899276 -45.37988281 203.63928223 C-48.48799842 203.62004558 -51.59605544 203.61611606 -54.70422268 203.6125679 C-58.46820588 203.60739032 -62.23213837 203.59293231 -65.99609375 203.578125 C-66.69142149 203.57624428 -67.38674923 203.57436356 -68.10314751 203.57242584 C-70.09540081 203.56543978 -72.08762311 203.55089377 -74.07983398 203.53613281 C-75.76422829 203.52589081 -75.76422829 203.52589081 -77.48265076 203.51544189 C-82.41633057 203.33152071 -87.33316889 202.82198465 -92.25 202.375 C-92.25 137.695 -92.25 73.015 -92.25 6.375 C-58.51596088 2.62677343 -58.51596088 2.62677343 -45.9375 1.6875 C-45.10134155 1.62496033 -44.26518311 1.56242065 -43.40368652 1.49798584 C-28.939339 0.44950769 -14.50021712 0.05411363 0 0 Z " fill="#75AADB" transform="translate(628.25,362.625)"/>
</svg>
